<svg width="33" height="57" viewBox="0 0 33 57" fill="none" xmlns="http://www.w3.org/2000/svg">
<path d="M27.3581 1.88573C27.3581 4.22743 26.0941 6.7459 24.8536 8.67561C23.5817 10.654 22.9682 12.6146 21.8482 14.6307C20.4244 17.1936 17.7338 18.9565 16.0601 21.4205C14.7826 23.3013 12.5345 24.8544 11.5521 26.8191C10.5105 28.9023 8.6195 30.4534 7.43365 32.5515C6.32072 34.5205 5.91034 36.8484 4.81788 38.8405C2.75264 42.6065 2.31342 48.6977 2.31342 52.9768" stroke="black" stroke-width="3" stroke-linecap="round"/>
<path d="M2.31342 6.89465C6.4757 7.93522 10.1338 15.866 12.1087 19.083C15.9502 25.341 19.097 32.1506 23.3509 38.1448C25.1529 40.684 26.5746 43.1658 27.8589 46.0199C29.1347 48.8549 29.5608 52.5745 31.3652 54.9804" stroke="black" stroke-width="3" stroke-linecap="round"/>
</svg>
