<svg width="31" height="58" viewBox="0 0 31 58" fill="none" xmlns="http://www.w3.org/2000/svg">
<path d="M1.49197 47.9554C2.25132 48.8096 2.0323 49.7313 3.10595 50.4598C4.9921 51.7397 7.33203 52.4462 9.50625 53.0756C12.4128 53.917 17.9064 56.647 20.9155 55.3574C23.3266 54.3241 24.7536 48.2097 25.4235 45.9518C26.5545 42.1399 27.5165 38.548 27.928 34.5982C28.5289 28.8291 30.4563 21.7125 28.8184 15.8982C27.6561 11.772 22.585 7.08085 19.2458 4.60031C17.3244 3.17293 14.3979 2.33149 12.0107 2.37412C3.71709 2.52222 2.70466 12.6372 2.10417 18.7923C1.4001 26.0089 1.99286 33.582 1.99286 40.8316C1.99286 42.6957 1.89484 44.5904 1.99286 46.4527C2.08412 48.1867 5.40973 50.3704 6.50089 51.4616" stroke="black" stroke-width="3" stroke-linecap="round"/>
</svg>
