<svg width="42" height="47" viewBox="0 0 42 47" fill="none" xmlns="http://www.w3.org/2000/svg">
<path d="M8.49375 6.2527C6.67106 8.30323 5.44009 11.514 3.98572 13.8774C1.59205 17.7671 1.98214 22.8206 1.98214 27.1789C1.98214 30.2503 2.29573 32.3143 3.48482 35.1932C4.59567 37.8826 7.4949 39.1124 9.55119 41.0926C14.5463 45.9027 23.5039 45.723 29.893 45.2667C38.3131 44.6652 39.8549 31.5691 39.5213 25.064C39.3635 21.9865 38.1947 17.837 37.0168 14.9905C35.6195 11.6136 34.4882 7.42721 32.5366 4.36044C29.3916 -0.581642 23.3453 3.42256 20.543 6.22488C18.4948 8.2731 15.9924 9.97669 13.7253 11.7904C12.1116 13.0813 9.61484 15.0898 8.49375 16.7715" stroke="black" stroke-width="3" stroke-linecap="round"/>
</svg>
